<svg xmlns="http://www.w3.org/2000/svg" viewBox="0 0 64 64"><defs><style>.cls-1{opacity:0.2;}</style></defs><title>Earth</title><g id="earth"><path d="M44.33,17.55A19,19,0,0,0,13.12,29.89a.49.49,0,0,0,0,.12A19,19,0,0,0,33.43,51c0-.05-.07-1-.07-1,.21,1.16.15,1,.29,1C50.57,49.49,57,28.26,44.33,17.55ZM48.9,33.9a17.14,17.14,0,0,1-15.3,15,16.5,16.5,0,0,1-4.46-.17A17,17,0,1,1,48.9,33.9Z"/><path d="M47.29,13.42a1,1,0,0,1,1.42,1.42A1,1,0,0,1,47.29,13.42Z"/><path d="M32.05,56a1,1,0,0,1,2-.09h0A1,1,0,0,1,32.05,56Zm-3.17.78h0A1,1,0,1,1,30,55.94C30.1,55.94,29.65,57,28.88,56.8Zm7.22-1.12a1,1,0,0,1,.75-1.2h0a1,1,0,0,1,.44,2A1,1,0,0,1,36.1,55.68Zm-11.35.25c-.79-.24-.78-1.24-.67-1.24a1,1,0,0,1,1.92.57C26.11,55.26,25.61,56.19,24.75,55.93ZM40,54.64a1,1,0,0,1,.55-1.31h0a1,1,0,0,1,.75,1.86A1,1,0,0,1,40,54.64Zm-19.19-.27h0a1,1,0,0,1,.9-1.79,1,1,0,1,1-.89,1.79ZM44,51.58h0a1,1,0,1,1,1,1.7h0A1,1,0,0,1,44,51.58Zm-26.81.59a1,1,0,0,1-.21-1.4c.46-.62,1.4-.38,1.4-.21A1,1,0,0,1,17.22,52.17Zm29.84-1.49a1,1,0,0,1,1.5-1.32,1,1,0,0,1-.09,1.41A1,1,0,0,1,47.06,50.68Zm-33-1.29a1,1,0,1,1,1.41,0A1,1,0,0,1,14.05,49.39Zm35.8-2.92h0a1,1,0,0,1,1.55,1.26h0A1,1,0,0,1,49.85,46.47Zm-38.47-.36A1,1,0,0,1,13,45a1,1,0,0,1-.26,1.38A1,1,0,0,1,11.38,46.11Zm41-1.48c-.69-.4-.51-1.37-.37-1.37a1,1,0,1,1,.37,1.37ZM9.29,42.46a1,1,0,0,1,.48-1.33h0a1,1,0,1,1,.85,1.81A1,1,0,0,1,9.29,42.46Zm45-1.44a1,1,0,0,1-.6-1.28h0a1,1,0,0,1,1.88.67A1,1,0,0,1,54.27,41ZM7.85,38.48a1,1,0,0,1,.71-1.22h0a1,1,0,0,1,.51,1.93A1,1,0,0,1,7.85,38.48Zm47.62-1.34a1,1,0,1,1,.34-2A1,1,0,1,1,55.47,37.14ZM7.11,34.33h0a1,1,0,0,1,2-.19h0A1,1,0,0,1,7.11,34.33ZM55,32.11h0a1,1,0,0,1,2,0h0A1,1,0,0,1,55,32.11ZM8,31.18a1,1,0,0,1-.92-1.08h0a1,1,0,0,1,2,.16C9.16,30.26,9,31.18,8,31.18ZM54.7,28.24a1,1,0,1,1,1.14.83h-.16A1,1,0,0,1,54.7,28.24ZM8.48,27.15A1,1,0,0,1,9,25.21a1,1,0,0,1,.73,1.21A1,1,0,0,1,8.48,27.15Zm45.26-2.67h0a1,1,0,0,1,.61-1.27h0a1,1,0,0,1,1.28.62c.21,0,.07,1.32-1,1.32A1,1,0,0,1,53.74,24.48ZM9.62,23.26a1,1,0,0,1-.51-1.32,1,1,0,0,1,1.83.81A1,1,0,0,1,9.62,23.26Zm42.53-2.33c-.34-.61.15-1.35.4-1.35a1,1,0,0,1,1,1.75A1,1,0,0,1,52.15,20.93ZM11.41,19.62a1,1,0,0,1-.28-1.39,1,1,0,1,1,.28,1.39ZM50,17.7h0a1,1,0,0,1,.17-1.41A1,1,0,1,1,50,17.7Zm-36.2-1.36a1,1,0,0,1,0-1.42,1,1,0,0,1,1.46,1.37A1,1,0,0,1,13.79,16.34Zm2.9-2.84a1,1,0,1,1,1.4.19A1,1,0,0,1,16.69,13.5ZM20,11.18a1,1,0,0,1,.42-1.35h0A1,1,0,1,1,20,11.18Zm3.67-1.72a1,1,0,0,1,.65-1.26h0A1,1,0,0,1,25,10.1,1,1,0,0,1,23.69,9.46ZM27.6,8.38a1,1,0,1,1,1.13.85A1,1,0,0,1,27.6,8.38Zm5,.63h0a1,1,0,0,1-1-1h0a1,1,0,0,1,2,0c.1,0-.16,1-1,1h0Z"/><path d="M36,9.18a1,1,0,0,1,1.42-1.42A1,1,0,0,1,36,9.18Z"/><path d="M47,20.38c-.39-.5-.59-.38-4-.38a5,5,0,0,0,0,10h6.75a1,1,0,0,0,1-1.17A19,19,0,0,0,47,20.38ZM43,28a3,3,0,0,1-2.13-5.12C42,21.74,43.18,22,45.74,22a17.67,17.67,0,0,1,1.82,3.17,18.61,18.61,0,0,1,1,2.83Z"/><path class="cls-1" d="M48.52,28H43a3,3,0,0,1,0-6c3,0,2.71-.08,2.9.23A16.38,16.38,0,0,1,48.52,28Z"/><path d="M30,32H23a1,1,0,0,0-1,1v5.5A3.5,3.5,0,0,0,25.5,42,1.5,1.5,0,0,1,27,43.5a7.59,7.59,0,0,0,2.15,5.25c.37.73,3,2.18,4.5,2.18a14.62,14.62,0,0,0,2.62-.42,1,1,0,0,0,.73-1V39A7,7,0,0,0,30,32Zm3.6,16.92A5.47,5.47,0,0,1,29,43.5,3.48,3.48,0,0,0,25.5,40,1.5,1.5,0,0,1,24,38.5V34h6a5,5,0,0,1,5,5v9.74C34.56,48.82,34.09,48.88,33.6,48.92Z"/><path class="cls-1" d="M35,39v9.74c-.44.08-.91.14-1.4.18A5.47,5.47,0,0,1,29,43.5,3.48,3.48,0,0,0,25.5,40,1.5,1.5,0,0,1,24,38.5V34h6A5,5,0,0,1,35,39Z"/><path d="M28.24,19.75C26,17.54,23.71,18,19.56,18a1,1,0,0,0-.69.28,18.92,18.92,0,0,0-5.75,11.61,1,1,0,0,0,.25.78c.38.44.26.33,6.19.33,2.87,2.83,3,3.25,3.82,2.92S24,33,24,30a2,2,0,0,1,2-2C29.84,28,31.57,23.11,28.24,19.75ZM26,26a4,4,0,0,0-4,4v.6c-2-2-.76-1.6-6.73-1.6a17.05,17.05,0,0,1,4.25-8.53c.59-.63-.15-.47,4.48-.47C28.33,20,29.31,26,26,26Z"/><path class="cls-1" d="M26,26a4,4,0,0,0-4,4v.6c-2.05-2-.68-1.6-6.73-1.6A16.94,16.94,0,0,1,20,20c3.55,0,5.31-.35,6.86,1.16C28.67,23.05,28.27,26,26,26Z"/><path d="M41,6a8,8,0,0,0-8,8,1.06,1.06,0,0,0,.89,1.11A16.94,16.94,0,0,1,41,17.6c3.9,2.38,3.26,4.09,5.26,2.41A8,8,0,0,0,41,6Zm4.17,12.31a19.05,19.05,0,0,0-10.12-5.06,6,6,0,1,1,10.12,5.06Z"/><path class="cls-1" d="M47,14a5.92,5.92,0,0,1-1.83,4.31,19.08,19.08,0,0,0-10.12-5.06A6,6,0,0,1,47,14Z"/></g></svg>