<svg width="23" height="23" viewBox="0 0 23 23" fill="none" xmlns="http://www.w3.org/2000/svg">
    <path d="M11.5 21.0833C16.7927 21.0833 21.0833 16.7927 21.0833 11.5C21.0833 6.20723 16.7927 1.91663 11.5 1.91663C6.20723 1.91663 1.91663 6.20723 1.91663 11.5C1.91663 16.7927 6.20723 21.0833 11.5 21.0833Z" stroke="#B4B4B4" stroke-width="1.5" stroke-linecap="round" stroke-linejoin="round"/>
    <path d="M8.7113 8.62506C8.93661 7.98457 9.38132 7.44449 9.96668 7.10048C10.552 6.75646 11.2402 6.63071 11.9094 6.74549C12.5786 6.86027 13.1856 7.20818 13.6228 7.7276C14.0601 8.24703 14.2994 8.90443 14.2984 9.58339C14.2984 11.5001 11.4234 12.4584 11.4234 12.4584V14.0897" stroke="#B4B4B4" stroke-width="1.5" stroke-linecap="round" stroke-linejoin="round"/>
    <path d="M11.5 16.2916H11.5104" stroke="#B4B4B4" stroke-width="1.5" stroke-linecap="round" stroke-linejoin="round"/>
</svg>
